<?xml version="1.0" standalone="no"?>
<!DOCTYPE svg PUBLIC "-//W3C//DTD SVG 20010904//EN"
 "http://www.w3.org/TR/2001/REC-SVG-20010904/DTD/svg10.dtd">
<svg version="1.0" xmlns="http://www.w3.org/2000/svg"
 width="1110.000000pt" height="1110.000000pt" viewBox="0 0 1110.000000 1110.000000"
 preserveAspectRatio="xMidYMid meet">
<metadata>
Created by potrace 1.14, written by Peter Selinger 2001-2017
</metadata>
<g transform="translate(0.000000,1110.000000) scale(0.100000,-0.100000)"
fill="#000000" stroke="none">
<path d="M5252 10484 c-29 -12 -55 -30 -58 -38 -3 -9 -9 -14 -13 -11 -4 2 -14
-5 -22 -17 -8 -11 -21 -27 -29 -36 -28 -29 -99 -136 -94 -143 2 -4 -3 -9 -11
-13 -8 -3 -15 -12 -15 -21 0 -8 -5 -15 -11 -15 -6 0 -9 -7 -5 -15 3 -9 0 -15
-10 -15 -8 0 -13 -4 -10 -9 3 -4 -6 -23 -19 -41 -13 -18 -22 -36 -20 -41 3 -4
1 -9 -3 -11 -10 -4 -102 -189 -102 -206 0 -7 -4 -12 -9 -12 -5 0 -12 -10 -16
-22 -10 -31 -12 -37 -15 -43 -1 -3 -3 -8 -5 -12 -1 -5 -9 -24 -17 -43 -9 -19
-14 -38 -12 -42 3 -5 1 -8 -4 -8 -5 0 -20 -27 -32 -60 -12 -33 -27 -60 -32
-60 -5 0 -6 -4 -3 -10 3 -5 -2 -10 -12 -11 -10 0 -27 -2 -38 -5 -11 -2 -40 -6
-65 -9 -25 -3 -56 -8 -70 -11 -14 -3 -47 -8 -75 -11 -27 -3 -55 -9 -62 -14 -7
-7 -13 -5 -15 3 -4 9 -9 10 -19 2 -8 -5 -32 -12 -53 -13 -22 -2 -49 -5 -60 -8
-12 -2 -37 -6 -56 -9 -60 -9 -75 -11 -75 -13 0 -1 -13 -4 -30 -6 -16 -2 -46
-7 -65 -10 -19 -3 -53 -8 -75 -11 -22 -3 -47 -8 -55 -11 -8 -3 -35 -8 -60 -9
-25 -2 -52 -7 -60 -10 -8 -4 -27 -8 -43 -10 -15 -1 -69 -12 -120 -23 -50 -11
-103 -23 -117 -25 -14 -2 -44 -9 -67 -14 -24 -5 -43 -8 -43 -5 0 3 -7 0 -15
-7 -8 -7 -15 -10 -15 -7 0 3 -17 1 -37 -5 -41 -10 -90 -19 -110 -21 -7 0 -13
-3 -13 -7 0 -4 -6 -7 -12 -7 -7 0 -29 -4 -48 -8 -19 -5 -45 -9 -57 -9 -13 -1
-23 -4 -23 -7 0 -6 -10 -8 -55 -11 -14 -1 -25 -5 -25 -9 0 -6 -38 -16 -77 -21
-7 -1 -13 -5 -13 -10 0 -5 -4 -7 -9 -4 -4 3 -23 1 -42 -5 -19 -5 -41 -12 -49
-14 -8 -2 -54 -17 -102 -33 -48 -17 -89 -27 -92 -24 -3 3 -6 0 -6 -6 0 -6 -13
-13 -30 -17 -16 -4 -30 -11 -30 -16 0 -6 -6 -9 -13 -8 -17 3 -97 -31 -97 -42
0 -5 -3 -8 -7 -7 -15 4 -53 -13 -53 -23 0 -6 -5 -7 -10 -4 -6 3 -13 -1 -16 -9
-3 -9 -9 -14 -13 -11 -4 2 -19 -7 -34 -21 -15 -14 -27 -22 -27 -19 0 6 -99
-94 -128 -129 -7 -9 -17 -26 -22 -38 -6 -13 -14 -30 -19 -38 -18 -28 -41 -83
-41 -97 0 -7 -4 -13 -8 -13 -4 0 -8 -8 -8 -17 -1 -10 -5 -31 -9 -48 -4 -16 -8
-40 -9 -52 0 -13 -5 -23 -9 -23 -5 0 -5 -4 -2 -10 3 -5 1 -19 -5 -30 -7 -13
-7 -20 -1 -20 7 0 7 -8 2 -23 -11 -28 -12 -387 -1 -387 3 0 7 -7 7 -15 0 -8
-4 -15 -9 -15 -5 0 -6 -5 -3 -10 4 -6 8 -32 11 -58 2 -26 6 -63 9 -82 2 -19 7
-60 11 -90 7 -60 12 -95 14 -95 1 0 3 -16 5 -35 2 -19 6 -50 9 -67 17 -92 17
-95 4 -87 -10 6 -10 5 0 -8 7 -9 15 -31 17 -50 8 -73 17 -124 22 -138 4 -8 7
-25 8 -37 0 -11 6 -32 12 -45 55 -116 75 -167 77 -190 0 -16 5 -28 10 -28 4 0
3 -6 -3 -13 -6 -8 -8 -16 -5 -20 11 -10 10 -77 -1 -77 -6 0 -6 -3 1 -8 6 -4
11 -25 12 -47 1 -37 9 -100 12 -100 1 0 3 -13 5 -29 2 -16 7 -36 11 -45 4 -9
8 -18 9 -21 21 -55 29 -70 37 -70 5 0 7 -4 3 -9 -3 -5 2 -17 11 -25 8 -9 12
-16 8 -16 -4 0 5 -12 20 -26 14 -15 26 -33 26 -40 0 -7 9 -16 21 -19 11 -4 18
-9 15 -12 -7 -7 105 -114 156 -149 24 -16 49 -35 56 -41 7 -7 20 -13 28 -13 8
0 17 -6 20 -14 5 -13 39 -30 57 -27 4 1 7 -4 7 -9 0 -5 3 -9 8 -8 4 1 25 -6
47 -16 57 -26 74 -32 125 -46 25 -7 52 -15 60 -18 8 -3 26 -6 40 -8 14 -1 36
-5 50 -9 34 -9 82 -14 168 -19 41 -2 76 -7 79 -10 3 -3 14 -1 24 5 11 5 19 6
19 2 0 -10 41 -10 57 0 7 4 14 3 18 -2 3 -6 15 -7 28 -2 12 5 31 5 42 1 11 -4
26 -3 33 2 6 6 12 7 12 2 0 -10 72 -10 89 0 6 4 11 4 11 -1 0 -4 16 -8 35 -8
19 0 35 4 35 8 0 5 5 5 12 1 17 -11 78 -11 85 -1 2 4 10 4 16 -1 7 -5 32 -10
57 -12 80 -5 115 -8 115 -10 0 -1 17 -3 39 -6 21 -2 44 -7 50 -12 6 -5 31 -15
56 -22 25 -8 47 -17 50 -21 3 -3 20 -14 39 -24 19 -9 46 -28 60 -41 14 -13 29
-24 33 -24 5 0 8 -5 8 -11 0 -6 11 -20 24 -30 13 -11 23 -26 22 -34 -3 -17
-35 -49 -56 -53 -8 -2 -18 -9 -22 -15 -4 -7 -8 -9 -8 -4 0 7 -47 -19 -60 -33
-16 -17 -140 -71 -150 -65 -12 7 -274 7 -340 0 -37 -4 -197 -17 -217 -18 -7 0
-13 -3 -13 -6 0 -4 -11 -6 -25 -6 -36 2 -148 -27 -224 -58 -36 -14 -68 -24
-72 -22 -4 3 -9 -2 -13 -10 -3 -8 -15 -15 -26 -15 -11 0 -20 -4 -20 -9 0 -5
-20 -18 -45 -30 -25 -12 -45 -26 -45 -31 0 -6 -6 -10 -12 -10 -14 0 -106 -67
-164 -118 -19 -17 -34 -28 -34 -26 0 2 -29 -25 -65 -61 -36 -35 -65 -69 -65
-74 0 -6 -7 -11 -15 -11 -8 0 -15 -6 -15 -13 0 -7 -36 -51 -81 -97 -44 -47
-88 -96 -97 -109 -18 -26 -25 -54 -12 -46 5 3 11 1 14 -4 8 -12 75 -4 92 10 7
6 18 8 24 4 5 -3 10 -2 10 4 0 10 57 27 75 22 6 -1 7 1 2 5 -8 8 56 34 84 34
20 0 33 -28 21 -44 -4 -6 -9 -24 -11 -41 -2 -16 -6 -32 -10 -35 -3 -3 -8 -14
-9 -25 -2 -11 -7 -24 -11 -30 -9 -12 -7 -56 3 -73 5 -8 12 -9 24 -2 20 12 75
32 81 30 2 -1 7 3 10 8 3 6 13 12 20 14 8 2 23 11 33 21 10 10 23 15 28 12 6
-4 10 -1 10 4 0 9 61 43 83 45 4 1 11 7 16 14 5 8 10 12 12 11 2 -1 20 3 39
11 19 7 38 12 43 11 4 0 7 4 7 9 0 5 3 9 8 8 4 -1 20 4 35 10 33 14 50 7 43
-16 -3 -10 -8 -33 -11 -52 -3 -19 -9 -44 -12 -55 -3 -11 -7 -42 -9 -70 -1 -27
-3 -52 -4 -55 -6 -15 -4 -36 4 -47 5 -8 5 -13 0 -13 -5 0 -9 -20 -9 -45 0 -25
3 -45 6 -45 4 0 7 -15 7 -33 0 -17 3 -63 6 -102 4 -38 7 -94 9 -122 1 -29 4
-53 7 -53 3 0 5 -17 4 -37 0 -21 4 -44 10 -52 9 -12 8 -13 -3 -6 -10 6 -12 4
-6 -4 4 -7 9 -29 11 -49 2 -21 6 -55 8 -77 16 -146 22 -191 31 -205 3 -5 1
-10 -5 -10 -7 0 -8 -6 -1 -18 6 -11 10 -27 11 -38 1 -48 4 -74 10 -74 3 0 5
-10 6 -22 0 -13 3 -41 7 -63 4 -22 10 -66 13 -97 4 -32 10 -58 15 -58 4 0 6
-8 5 -17 -2 -10 1 -31 6 -48 5 -16 11 -45 13 -63 2 -18 7 -37 10 -43 4 -5 8
-20 10 -32 2 -12 6 -29 8 -37 3 -8 8 -30 12 -47 4 -18 12 -33 17 -33 5 0 6 -4
3 -10 -5 -9 11 -54 36 -102 5 -10 9 -25 9 -33 0 -8 4 -15 8 -15 5 0 9 -7 9
-15 0 -8 -44 -36 -106 -67 -58 -28 -109 -57 -113 -63 -4 -5 -8 -6 -8 -1 0 5
-11 -3 -25 -18 -13 -14 -26 -25 -28 -24 -2 2 -18 -9 -36 -24 -18 -16 -29 -28
-24 -28 4 0 4 -4 -2 -8 -15 -10 -49 -68 -60 -102 -1 -3 -4 -12 -8 -20 -19 -47
-26 -103 -23 -189 5 -109 13 -160 29 -180 9 -11 9 -13 0 -8 -9 6 -8 -3 2 -28
9 -19 12 -35 9 -35 -4 0 -1 -6 5 -13 6 -8 8 -17 4 -20 -3 -4 0 -13 7 -22 7 -8
9 -15 4 -15 -4 0 -3 -5 4 -12 7 -7 12 -22 12 -34 0 -13 5 -26 10 -29 6 -3 10
-17 10 -31 0 -13 5 -24 12 -24 6 0 8 -3 5 -7 -4 -3 -2 -12 4 -20 6 -7 8 -13 4
-13 -4 0 -2 -7 5 -15 6 -8 9 -19 5 -25 -3 -5 -2 -10 2 -10 5 0 17 -26 28 -58
10 -31 22 -61 27 -66 4 -6 8 -18 8 -28 0 -10 4 -18 8 -18 5 0 9 -6 9 -14 0 -8
7 -30 17 -50 27 -57 32 -107 13 -118 -9 -5 -20 -9 -24 -9 -5 -1 -17 -6 -28
-12 -11 -6 -23 -12 -27 -13 -5 -1 -11 -3 -15 -4 -5 -1 -11 -2 -15 -1 -5 0 -8
-3 -8 -8 0 -8 -56 -25 -73 -22 -4 0 -7 -3 -7 -9 0 -6 -3 -9 -7 -8 -14 2 -103
-26 -103 -33 0 -5 -9 -6 -20 -4 -11 2 -20 0 -20 -4 0 -5 -19 -14 -43 -21 -25
-7 -44 -18 -44 -26 0 -13 5 -16 23 -13 4 0 10 -4 13 -10 4 -5 20 -12 36 -15
17 -3 45 -10 63 -15 18 -5 34 -10 37 -11 7 -1 25 -6 71 -20 45 -13 53 -35 22
-58 -10 -7 -18 -20 -18 -28 0 -8 -4 -14 -9 -14 -8 0 -12 -7 -30 -62 -7 -21 -5
-27 9 -31 28 -7 104 4 112 17 6 8 8 8 8 -1 0 -6 8 -10 18 -9 27 5 55 -9 58
-27 1 -10 -1 -17 -6 -17 -4 0 -12 -13 -18 -28 -5 -16 -17 -36 -27 -45 -9 -9
-14 -17 -10 -17 4 0 -1 -7 -9 -16 -17 -17 -22 -49 -6 -39 5 3 10 2 10 -4 0 -6
11 -6 29 -1 16 4 32 6 35 2 3 -3 6 -1 6 4 0 5 8 10 18 11 9 0 28 4 42 7 14 3
37 7 53 8 15 1 27 5 27 8 0 3 12 6 28 6 54 3 157 13 157 15 0 3 53 7 195 14
155 8 168 8 195 2 11 -2 30 -1 42 4 12 5 25 5 27 0 5 -7 38 -11 114 -13 17 -1
32 -4 32 -7 0 -3 19 -6 43 -7 52 0 113 -11 136 -24 10 -5 21 -7 24 -3 4 3 13
1 21 -6 21 -18 50 13 36 40 -6 10 -7 19 -3 19 4 0 2 5 -5 12 -7 7 -12 20 -12
30 0 10 -4 18 -9 18 -5 0 -11 10 -14 23 -3 12 -11 40 -17 62 -16 62 -19 77
-22 112 -1 18 -5 33 -8 33 -3 0 -5 18 -4 40 0 23 -2 43 -6 45 -13 8 8 118 24
127 9 5 16 14 16 21 1 31 80 87 80 57 0 -6 4 -9 9 -5 5 3 16 -1 23 -8 16 -16
259 -136 336 -167 30 -11 58 -18 63 -15 5 4 9 3 9 -2 0 -4 18 -14 41 -21 36
-11 82 -42 63 -42 -4 0 0 -8 8 -17 20 -23 57 -106 64 -145 3 -14 -16 -28 -46
-33 -3 0 -15 -6 -27 -13 -13 -7 -23 -10 -23 -7 0 3 -13 -1 -29 -9 -16 -9 -31
-12 -35 -9 -3 4 -6 1 -6 -5 0 -7 -3 -11 -7 -10 -19 5 -184 -60 -195 -76 -4 -6
-8 -8 -8 -4 0 4 -17 0 -37 -8 -20 -9 -46 -18 -57 -20 -24 -4 -41 -20 -24 -22
33 -3 68 -10 123 -27 33 -9 70 -19 82 -21 12 -2 34 -9 48 -14 14 -5 25 -6 25
-2 0 4 7 -1 15 -12 13 -17 11 -22 -13 -55 -15 -20 -31 -39 -37 -43 -5 -4 -6
-8 -1 -8 5 0 4 -6 -2 -13 -6 -7 -9 -22 -7 -32 2 -11 4 -22 4 -26 1 -3 11 -6
24 -6 12 -1 34 -4 50 -6 15 -2 29 -1 32 3 5 8 63 6 92 -4 24 -8 21 -31 -6 -54
-13 -11 -13 -12 -1 -6 14 7 0 -14 -37 -54 -21 -22 -16 -52 10 -53 12 -1 31 -2
42 -3 11 0 34 3 50 7 30 8 92 18 130 21 11 1 26 5 33 9 7 5 12 3 12 -3 0 -6 5
-8 12 -4 7 5 35 9 63 11 115 6 155 10 161 16 4 3 15 2 25 -4 11 -5 19 -6 19
-1 0 5 79 9 175 9 96 0 175 -3 175 -6 0 -4 15 -7 33 -7 41 -1 141 -12 187 -21
19 -3 45 -6 58 -7 12 0 22 -3 22 -6 0 -13 35 -6 47 9 9 12 8 23 -2 49 -8 18
-14 35 -14 37 1 9 -13 90 -27 160 -4 17 -6 40 -5 52 0 13 -3 23 -7 23 -7 0 -8
63 -3 123 1 18 0 18 126 2 67 -9 118 -15 170 -21 28 -3 61 -6 75 -7 14 -2 31
-7 38 -11 7 -4 12 -2 12 4 0 6 5 8 11 4 14 -8 60 -13 197 -18 62 -3 117 -8
122 -11 6 -3 10 0 10 7 0 9 3 10 8 2 10 -17 904 -17 914 -1 5 8 8 9 8 1 0 -10
76 -11 153 0 15 2 27 -2 27 -8 0 -7 3 -7 8 -1 4 6 39 10 77 11 77 1 351 13
460 19 39 3 103 7 144 9 40 3 76 7 79 10 3 3 11 1 19 -5 7 -6 13 -7 13 -2 0 5
33 10 73 12 69 2 136 8 147 12 3 0 13 1 23 0 9 -1 17 2 17 7 0 6 9 8 20 5 12
-3 20 0 20 6 0 7 4 10 9 7 4 -3 19 3 31 14 13 11 28 20 33 20 6 0 8 3 4 6 -3
4 1 13 9 21 8 8 12 19 9 24 -4 5 -1 9 6 9 7 0 9 3 6 7 -4 3 -2 12 4 20 6 7 8
13 4 13 -4 0 -3 6 2 13 26 32 65 180 65 247 1 78 -33 132 -91 147 -13 3 -35
12 -49 19 -13 6 -35 11 -48 9 -13 -1 -24 1 -24 5 0 4 -21 8 -46 9 -26 0 -50 4
-55 7 -5 3 -9 -1 -9 -8 0 -9 -2 -10 -8 -1 -4 6 -26 10 -54 8 -30 -2 -47 1 -45
8 3 16 31 44 40 40 4 -2 7 2 7 10 0 8 7 20 16 28 8 7 26 33 39 58 22 45 22 47
6 91 -13 35 -25 49 -56 65 -22 11 -42 22 -45 25 -3 3 -18 7 -34 8 -17 1 -32 5
-35 10 -3 4 -24 8 -46 10 -22 2 -41 8 -43 13 -2 5 -11 5 -21 -1 -10 -5 -20 -7
-23 -5 -2 2 -25 7 -51 9 -33 4 -47 1 -47 -7 0 -8 -3 -9 -8 -1 -4 6 -14 12 -22
12 -57 5 -81 15 -74 31 3 9 7 21 7 28 0 6 7 9 16 5 9 -3 13 -1 8 3 -8 10 45
35 74 35 11 0 19 4 19 8 0 4 9 8 20 9 34 3 120 51 163 93 23 22 51 48 62 57
19 17 22 24 30 65 4 19 -16 68 -27 68 -5 0 -8 6 -8 13 0 7 -8 19 -17 27 -29
25 -93 62 -93 55 0 -4 -6 -2 -13 4 -8 6 -17 8 -20 4 -4 -3 -7 -2 -7 4 0 6 -24
16 -52 23 -29 6 -60 14 -68 17 -28 11 -45 15 -67 17 -13 0 -23 4 -23 9 0 4 -8
7 -18 7 -10 0 -22 3 -26 7 -4 5 -11 8 -14 9 -8 1 -56 20 -87 33 -11 5 -33 12
-48 16 -24 5 -27 8 -16 21 7 8 18 13 25 10 7 -3 14 0 16 5 2 6 10 11 18 12 8
2 22 7 30 12 8 5 24 11 35 12 10 2 22 8 26 14 3 6 8 10 10 8 2 -1 33 9 69 22
36 13 68 23 73 21 4 -1 7 2 7 8 0 5 16 12 35 16 19 3 35 10 35 16 0 5 4 7 9 3
12 -7 161 65 161 77 0 5 4 7 8 4 5 -3 20 6 35 20 14 13 29 24 33 24 13 0 84
81 87 100 2 11 6 22 10 26 3 4 1 16 -5 28 -6 11 -11 22 -9 24 1 1 -5 15 -13
30 -22 42 -110 128 -163 159 -27 15 -49 31 -51 35 -2 4 -10 8 -17 8 -8 0 -39
14 -69 31 -31 16 -56 27 -56 23 0 -3 -11 1 -25 10 -13 9 -31 16 -40 16 -8 0
-15 5 -15 11 0 6 -7 9 -15 5 -8 -3 -15 -2 -15 2 0 8 -87 45 -107 45 -7 0 -13
4 -13 8 0 7 -39 22 -53 20 -4 -1 -28 10 -53 24 -24 14 -49 25 -55 25 -5 0 -22
11 -36 24 l-26 24 38 16 c20 9 46 16 56 16 11 0 19 4 19 8 0 4 17 9 39 10 21
2 49 5 62 8 13 2 40 7 59 10 19 3 39 8 44 11 4 3 25 8 45 10 20 3 37 9 39 13
2 5 9 7 16 4 6 -2 31 2 54 10 23 8 42 12 42 9 0 -3 8 1 18 10 10 10 21 14 25
11 3 -4 14 -3 24 1 10 5 23 9 28 11 6 1 24 8 40 15 17 7 33 12 38 11 4 -1 7 2
7 8 0 6 3 9 8 8 13 -4 101 45 96 54 -3 4 2 8 10 8 9 0 16 6 16 14 0 8 5 16 11
18 27 9 24 138 -3 138 -4 0 -8 6 -8 14 0 8 -15 27 -34 44 -19 17 -32 33 -29
36 4 3 -1 6 -11 6 -9 0 -19 7 -22 15 -4 8 -10 12 -15 9 -5 -3 -9 -1 -9 4 0 9
-36 29 -54 30 -5 0 -12 5 -15 10 -3 5 -23 19 -43 31 -21 11 -55 31 -75 42 -69
40 -267 136 -308 150 -22 8 -42 16 -45 20 -3 3 -21 11 -40 19 -45 17 -52 23
-45 42 5 12 62 38 98 44 4 1 8 2 10 4 1 1 11 3 22 5 11 1 36 6 55 10 19 4 40
8 45 9 6 1 15 4 20 7 6 4 22 6 37 5 15 -1 30 4 32 11 3 7 12 10 20 7 8 -3 17
-1 20 5 4 6 13 8 21 4 8 -3 15 0 15 7 0 6 4 9 8 6 5 -3 26 0 48 6 21 7 42 13
47 14 4 1 9 3 12 4 3 1 10 4 15 5 6 1 11 3 13 5 1 1 9 3 17 5 8 2 47 16 85 30
39 15 76 27 83 28 6 0 12 5 12 10 0 6 3 7 6 4 4 -4 19 2 34 13 15 11 30 17 34
13 3 -3 6 -1 6 5 0 7 6 12 13 12 18 0 75 53 91 85 18 35 11 93 -15 116 -11 10
-20 20 -19 24 0 3 -20 26 -45 50 -25 25 -45 43 -45 40 0 -2 -21 9 -47 25 -26
17 -53 30 -60 30 -7 0 -13 4 -13 9 0 5 -13 12 -30 16 -16 4 -30 11 -30 16 0 5
-3 8 -7 7 -5 -1 -19 4 -33 12 -14 7 -26 13 -27 13 -9 -4 -43 11 -43 18 0 5 -7
9 -15 9 -15 0 -23 3 -81 33 -17 9 -34 14 -38 10 -3 -3 -6 0 -6 7 0 7 -3 10 -6
7 -4 -3 -15 -2 -26 4 -11 6 -29 12 -40 14 -12 3 -25 10 -28 16 -4 6 -10 10
-14 9 -4 -1 -26 6 -49 16 -23 10 -45 18 -49 20 -5 1 -11 3 -15 4 -5 1 -11 2
-15 1 -5 0 -8 3 -8 7 0 5 -18 15 -40 22 -22 7 -40 17 -40 22 0 4 -6 8 -13 8
-8 0 -14 7 -14 15 0 8 6 15 14 15 7 0 13 5 13 11 0 5 5 7 10 4 6 -3 13 1 16 9
3 9 12 16 20 16 7 0 18 8 23 18 6 9 11 13 11 8 0 -5 11 1 25 14 14 13 25 20
25 16 0 -5 15 3 34 17 18 15 36 23 40 20 3 -4 6 -1 6 5 0 6 21 23 48 37 61 32
86 48 93 58 6 9 29 23 86 53 18 10 30 21 27 25 -2 4 5 10 16 14 11 3 20 11 20
16 0 6 4 8 9 4 5 -3 17 5 25 17 9 12 16 19 16 15 0 -8 16 3 56 41 14 12 29 22
35 22 6 0 7 4 4 10 -3 6 -2 10 4 10 6 0 22 11 36 25 14 14 25 23 25 20 0 -3
14 10 31 29 16 19 30 37 30 40 0 3 11 18 24 32 14 15 25 33 25 40 0 8 5 14 11
14 5 0 8 4 4 9 -3 5 -1 12 5 16 6 4 8 10 5 15 -3 5 -1 11 4 14 7 5 8 37 2 103
-1 10 -99 117 -111 120 -3 1 -36 15 -73 32 -67 30 -170 64 -194 64 -7 0 -13 4
-13 10 0 5 -6 7 -12 4 -7 -2 -24 1 -38 8 -14 7 -35 11 -47 10 -13 -1 -23 2
-23 7 0 5 -4 6 -10 3 -5 -3 -10 -2 -10 3 0 4 -13 9 -30 10 -49 3 -60 5 -60 11
0 5 -21 9 -72 11 -10 1 -18 6 -18 11 0 6 -4 8 -9 5 -5 -3 -44 1 -88 9 -43 8
-89 16 -103 19 -62 11 -78 30 -48 59 10 9 18 14 18 11 0 -3 17 12 38 33 21 21
58 54 82 73 46 37 127 110 191 173 22 20 41 37 43 37 4 0 102 100 216 218 14
15 24 30 23 34 -2 4 5 8 14 8 9 0 14 3 11 6 -3 3 5 17 18 31 13 14 22 28 20
30 -2 2 7 16 19 29 13 14 38 55 55 91 48 99 44 189 -10 243 -23 23 -127 80
-133 73 -3 -3 -12 -1 -19 3 -7 5 -22 9 -33 10 -11 1 -27 4 -35 7 -49 18 -254
29 -556 31 -178 1 -216 9 -175 38 18 13 21 18 21 38 0 6 7 10 15 10 8 0 15 6
15 13 0 7 9 18 20 25 11 7 20 19 20 27 0 8 8 15 17 15 9 0 14 3 10 6 -3 3 13
26 36 49 23 24 51 56 62 70 21 28 54 67 86 101 10 12 19 24 19 27 0 3 15 23
34 43 19 21 33 42 30 46 -3 4 2 8 10 8 9 0 16 4 16 10 0 10 20 37 53 72 9 10
17 23 17 28 0 6 4 10 8 10 4 0 23 26 42 57 19 32 43 66 53 75 11 12 13 18 5
18 -10 0 -10 2 0 9 7 4 24 30 36 58 29 61 29 142 1 173 -10 11 -20 18 -23 16
-2 -3 -11 2 -19 10 -8 8 -19 12 -24 9 -5 -4 -9 -1 -9 5 0 12 -102 9 -165 -5
-16 -4 -38 -7 -47 -8 -10 -1 -18 -4 -18 -7 0 -3 -8 -6 -17 -6 -31 -2 -85 -14
-104 -25 -11 -5 -19 -8 -19 -5 0 2 -39 -9 -87 -26 -49 -16 -99 -32 -112 -34
-14 -3 -29 -8 -35 -12 -6 -4 -13 -7 -16 -8 -3 -1 -20 -5 -37 -9 -18 -4 -33
-12 -33 -18 0 -6 -3 -8 -6 -4 -3 3 -36 -5 -73 -19 -36 -14 -73 -26 -81 -28
-59 -15 -70 -19 -70 -29 0 -6 -3 -8 -6 -4 -3 3 -16 2 -29 -3 -16 -6 -25 -5
-28 4 -5 14 31 99 44 104 5 2 7 8 3 13 -3 5 0 9 6 9 6 0 9 4 5 9 -3 5 0 13 6
17 6 3 17 21 25 38 8 17 28 53 43 81 16 27 27 53 25 57 -3 5 -1 8 5 8 5 0 15
16 22 35 7 19 17 35 22 35 4 0 6 4 2 9 -3 6 2 14 11 19 9 5 14 11 13 13 -2 2
21 54 50 114 29 61 59 123 67 139 8 16 14 32 14 36 0 4 8 25 17 46 9 22 18 42
19 47 1 4 2 8 3 10 2 1 5 13 7 27 2 13 8 27 12 30 4 3 8 12 9 20 1 8 6 36 11
62 11 58 7 141 -7 146 -6 2 -11 10 -11 17 0 19 -58 58 -75 51 -8 -3 -17 -1
-19 3 -5 8 -98 -3 -115 -13 -5 -4 -12 0 -14 6 -4 10 -6 10 -6 0 -1 -7 -5 -10
-11 -7 -5 3 -10 1 -10 -5 0 -6 -4 -9 -8 -6 -5 3 -20 -1 -35 -9 -15 -8 -27 -12
-27 -10 0 5 -45 -14 -136 -55 -35 -17 -69 -30 -74 -30 -6 0 -10 -4 -10 -8 0
-4 -15 -14 -32 -21 -18 -8 -35 -15 -38 -16 -3 -2 -15 -6 -27 -10 -13 -4 -23
-12 -23 -18 0 -6 -3 -7 -7 -4 -3 4 -11 3 -17 -2 -6 -5 -40 -25 -76 -44 -36
-19 -81 -42 -100 -53 -19 -10 -38 -17 -42 -16 -5 1 -8 -3 -8 -9 0 -5 -4 -7
-10 -4 -5 3 -10 1 -10 -5 0 -6 -4 -8 -10 -5 -5 3 -10 2 -10 -3 0 -4 -27 -23
-60 -42 -33 -19 -60 -38 -60 -44 0 -5 -3 -6 -7 -3 -3 4 -15 0 -25 -10 -17 -15
-18 -15 -18 0 0 10 -5 17 -10 17 -7 0 -7 6 0 19 7 14 7 22 0 26 -6 4 -7 11 -3
18 8 13 6 363 -2 377 -3 6 -1 10 5 10 6 0 9 8 6 18 -6 17 -15 134 -19 230 -1
17 -4 32 -7 32 -3 0 -6 24 -7 53 -1 51 -3 64 -24 156 -20 88 -85 189 -125 192
-22 2 -28 4 -39 11 -13 8 -135 -30 -135 -42 0 -5 -8 -11 -18 -14 -10 -3 -38
-25 -62 -48 -25 -23 -48 -41 -52 -40 -5 1 -8 -2 -8 -8 0 -5 -25 -36 -55 -67
-30 -32 -55 -64 -55 -72 0 -8 -3 -12 -6 -8 -7 7 -100 -104 -97 -115 2 -5 -1
-8 -5 -8 -5 0 -24 -21 -42 -47 -19 -27 -40 -52 -47 -56 -7 -5 -11 -12 -8 -18
4 -5 2 -9 -4 -9 -5 0 -24 -22 -42 -50 -18 -27 -36 -50 -41 -50 -4 0 -8 -7 -8
-15 0 -8 -4 -15 -9 -15 -5 0 -13 -9 -16 -20 -4 -11 -11 -18 -16 -15 -5 4 -9
-1 -9 -9 0 -8 -7 -22 -16 -30 -13 -14 -17 -14 -30 -2 -8 8 -14 23 -14 33 0 11
-4 23 -8 28 -9 10 -34 89 -37 115 -1 8 -6 24 -12 35 -5 11 -23 56 -38 100 -15
44 -31 84 -36 89 -5 6 -9 20 -9 33 0 13 -4 23 -10 23 -5 0 -10 7 -10 15 0 8
-9 30 -20 50 -11 19 -20 36 -20 38 0 13 -26 67 -33 67 -4 0 -6 4 -2 9 3 5 0
13 -5 16 -10 6 -26 39 -28 58 -1 4 -7 14 -14 22 -28 31 -38 44 -38 51 0 8 -44
50 -75 70 -34 22 -84 34 -91 22 -4 -7 -9 -7 -13 0 -4 6 -27 1 -59 -14z"/>
</g>
</svg>
